{
  "accessors": [
    {
      "bufferView": 2,
      "componentType": 5126,
      "count": 65532,
      "max": [
        1.4097199440002441,
        1.5183700323104858,
        1.5491299629211426
      ],
      "min": [
        -1.2532000541687012,
        -1.5349700450897217,
        -0.009259999729692936
      ],
      "type": "VEC3"
    },
    {
      "bufferView": 2,
      "byteOffset": 786384,
      "componentType": 5126,
      "count": 65532,
      "max": [
        0.9999849200248718,
        0.9999998807907104,
        0.9999998211860657
      ],
      "min": [
        -0.9999821782112122,
        -0.9999994039535522,
        -0.9999187588691711
      ],
      "type": "VEC3"
    },
    {
      "bufferView": 1,
      "componentType": 5126,
      "count": 65532,
      "max": [
        0.9977869987487793,
        0.9958440065383911
      ],
      "min": [
        0.002111000008881092,
        0.39922401309013367
      ],
      "type": "VEC2"
    },
    {
      "bufferView": 0,
      "componentType": 5125,
      "count": 332820,
      "type": "SCALAR"
    },
    {
      "bufferView": 2,
      "byteOffset": 1572768,
      "componentType": 5126,
      "count": 39588,
      "max": [
        1.359339952468872,
        1.5203100442886353,
        1.5461299419403076
      ],
      "min": [
        -1.174340009689331,
        -1.429610013961792,
        -0.010449999943375587
      ],
      "type": "VEC3"
    },
    {
      "bufferView": 2,
      "byteOffset": 2047824,
      "componentType": 5126,
      "count": 39588,
      "max": [
        0.9996019005775452,
        0.9999882578849792,
        0.9999998211860657
      ],
      "min": [
        -0.9972336888313293,
        -0.999969482421875,
        -0.9825553297996521
      ],
      "type": "VEC3"
    },
    {
      "bufferView": 1,
      "byteOffset": 524256,
      "componentType": 5126,
      "count": 39588,
      "max": [
        0.9893590211868286,
        0.9954879879951477
      ],
      "min": [
        0.0021750000305473804,
        0.45238399505615234
      ],
      "type": "VEC2"
    },
    {
      "bufferView": 0,
      "byteOffset": 1331280,
      "componentType": 5125,
      "count": 213273,
      "type": "SCALAR"
    }
  ],
  "asset": {
    "extras": {
      "author": "The Center for Digital Humanities UArizona (https://sketchfab.com/UofA-CDH)",
      "license": "CC-BY-NC-SA-4.0 (http://creativecommons.org/licenses/by-nc-sa/4.0/)",
      "source": "https://sketchfab.com/3d-models/anna-murray-douglass-quilt-e7dd9f1071f6426089c02ac99260ad3e",
      "title": "Anna Murray Douglass Quilt"
    },
    "generator": "Sketchfab-16.16.0",
    "version": "2.0"
  },
  "bufferViews": [
    {
      "buffer": 0,
      "byteLength": 2184372,
      "name": "floatBufferViews",
      "target": 34963
    },
    {
      "buffer": 0,
      "byteLength": 840960,
      "byteOffset": 2184372,
      "byteStride": 8,
      "name": "floatBufferViews",
      "target": 34962
    },
    {
      "buffer": 0,
      "byteLength": 2522880,
      "byteOffset": 3025332,
      "byteStride": 12,
      "name": "floatBufferViews",
      "target": 34962
    }
  ],
  "buffers": [
    {
      "byteLength": 5548212,
      "uri": "scene.bin"
    }
  ],
  "extensionsUsed": [
    "KHR_materials_unlit"
  ],
  "images": [
    {
      "uri": "textures/main_baseColor.jpeg"
    }
  ],
  "materials": [
    {
      "doubleSided": true,
      "extensions": {
        "KHR_materials_unlit": {}
      },
      "name": "main",
      "pbrMetallicRoughness": {
        "baseColorTexture": {
          "index": 0
        },
        "metallicFactor": 0.0
      }
    }
  ],
  "meshes": [
    {
      "name": "Object_0",
      "primitives": [
        {
          "attributes": {
            "NORMAL": 1,
            "POSITION": 0,
            "TEXCOORD_0": 2
          },
          "indices": 3,
          "material": 0,
          "mode": 4
        }
      ]
    },
    {
      "name": "Object_1",
      "primitives": [
        {
          "attributes": {
            "NORMAL": 5,
            "POSITION": 4,
            "TEXCOORD_0": 6
          },
          "indices": 7,
          "material": 0,
          "mode": 4
        }
      ]
    }
  ],
  "nodes": [
    {
      "children": [
        1
      ],
      "matrix": [
        1.0,
        0.0,
        0.0,
        0.0,
        0.0,
        2.220446049250313e-16,
        -1.0,
        0.0,
        0.0,
        1.0,
        2.220446049250313e-16,
        0.0,
        0.0,
        0.0,
        0.0,
        1.0
      ],
      "name": "Sketchfab_model"
    },
    {
      "children": [
        2,
        3
      ],
      "name": "Scaniverse.obj.cleaner.materialmerger.gles"
    },
    {
      "mesh": 0,
      "name": "Object_2"
    },
    {
      "mesh": 1,
      "name": "Object_3"
    }
  ],
  "samplers": [
    {
      "magFilter": 9729,
      "minFilter": 9987,
      "wrapS": 10497,
      "wrapT": 10497
    }
  ],
  "scene": 0,
  "scenes": [
    {
      "name": "Sketchfab_Scene",
      "nodes": [
        0
      ]
    }
  ],
  "textures": [
    {
      "sampler": 0,
      "source": 0
    }
  ]
}
